<svg width="13" height="18" viewBox="0 0 13 18" fill="none" xmlns="http://www.w3.org/2000/svg">
<path d="M9.38888 12.6782C9.58043 12.6782 9.76413 12.7543 9.89957 12.8897C10.035 13.0251 10.1111 13.2088 10.1111 13.4004C10.1111 13.5919 10.035 13.7756 9.89957 13.9111C9.76413 14.0465 9.58043 14.1226 9.38888 14.1226H8.66666C8.47511 14.1226 8.29141 14.0465 8.15597 13.9111C8.02053 13.7756 7.94444 13.5919 7.94444 13.4004C7.94444 13.2088 8.02053 13.0251 8.15597 12.8897C8.29141 12.7543 8.47511 12.6782 8.66666 12.6782H9.38888ZM7.94444 11.2337C7.75289 11.2337 7.56919 11.1576 7.43375 11.0222C7.29831 10.8867 7.22222 10.703 7.22222 10.5115V9.78928H5.77777V10.5115C5.77777 10.703 5.70168 10.8867 5.56624 11.0222C5.4308 11.1576 5.2471 11.2337 5.05555 11.2337C4.86401 11.2337 4.68031 11.1576 4.54486 11.0222C4.40942 10.8867 4.33333 10.703 4.33333 10.5115V7.62262C4.33333 7.04798 4.5616 6.49688 4.96793 6.09055C5.37426 5.68423 5.92536 5.45595 6.49999 5.45595C7.07463 5.45595 7.62573 5.68423 8.03206 6.09055C8.43839 6.49688 8.66666 7.04798 8.66666 7.62262V10.5115C8.66666 10.703 8.59057 10.8867 8.45512 11.0222C8.31968 11.1576 8.13598 11.2337 7.94444 11.2337ZM7.22222 8.34484V7.62262C7.22222 7.43107 7.14612 7.24737 7.01068 7.11193C6.87524 6.97649 6.69154 6.9004 6.49999 6.9004C6.30845 6.9004 6.12475 6.97649 5.98931 7.11193C5.85386 7.24737 5.77777 7.43107 5.77777 7.62262V8.34484H7.22222ZM5.98649 12.1726L4.82227 13.3498C4.78966 13.3826 4.74572 13.4017 4.69949 13.403C4.65327 13.4043 4.60829 13.3879 4.57383 13.3571L4.12894 12.8948C3.99486 12.7575 3.81171 12.679 3.61979 12.6767C3.42787 12.6744 3.24289 12.7485 3.10555 12.8826C2.96821 13.0166 2.88977 13.1998 2.88746 13.3917C2.88516 13.5836 2.95919 13.7686 3.09327 13.9059L3.54539 14.3711C3.85072 14.6758 4.26449 14.847 4.69588 14.847C5.12728 14.847 5.54105 14.6758 5.84638 14.3711L7.01349 13.1837C7.13298 13.0449 7.19525 12.8658 7.18769 12.6828C7.18013 12.4998 7.10331 12.3265 6.97277 12.198C6.84224 12.0694 6.66775 11.9953 6.48464 11.9906C6.30152 11.9859 6.12345 12.051 5.98649 12.1726ZM13 5.20823V14.1226C12.9988 15.08 12.618 15.9978 11.9411 16.6748C11.2641 17.3517 10.3463 17.7326 9.38888 17.7337H3.61111C2.65373 17.7326 1.7359 17.3517 1.05894 16.6748C0.38197 15.9978 0.00114678 15.08 0 14.1226V4.01151C0.00114678 3.05414 0.38197 2.1363 1.05894 1.45934C1.7359 0.782372 2.65373 0.401549 3.61111 0.400403H8.19216C8.66664 0.399182 9.13666 0.492065 9.57501 0.673679C10.0134 0.855292 10.4113 1.12203 10.7459 1.45846L11.9419 2.65446C12.2784 2.98905 12.5451 3.38703 12.7267 3.82538C12.9083 4.26373 13.0012 4.73375 13 5.20823ZM9.72471 2.47968C9.62206 2.3776 9.50957 2.28591 9.38888 2.20596V4.01151H11.1944C11.1143 3.89079 11.0223 3.7783 10.92 3.67568L9.72471 2.47968ZM11.5555 5.45595H9.38888C9.00579 5.45595 8.63839 5.30377 8.36751 5.03289C8.09662 4.762 7.94444 4.3946 7.94444 4.01151V1.84485H3.61111C3.03647 1.84485 2.48537 2.07312 2.07904 2.47945C1.67272 2.88578 1.44444 3.43687 1.44444 4.01151V14.1226C1.44444 14.6972 1.67272 15.2483 2.07904 15.6547C2.48537 16.061 3.03647 16.2893 3.61111 16.2893H9.38888C9.96352 16.2893 10.5146 16.061 10.9209 15.6547C11.3273 15.2483 11.5555 14.6972 11.5555 14.1226V5.45595Z" fill="#23A462"/>
</svg>
