<svg width="6" height="6" viewBox="0 0 6 6" fill="none" xmlns="http://www.w3.org/2000/svg">
<path d="M3.53022 2.99999L5.89013 0.640342C6.03662 0.493852 6.03662 0.256346 5.89013 0.109868C5.74364 -0.0366225 5.50613 -0.0366225 5.35965 0.109868L2.99999 2.46976L0.640342 0.109868C0.493852 -0.0366225 0.256346 -0.0366225 0.109868 0.109868C-0.0366108 0.256358 -0.0366225 0.493864 0.109868 0.640342L2.46976 2.99999L0.109868 5.35965C-0.0366225 5.50614 -0.0366225 5.74365 0.109868 5.89013C0.256358 6.0366 0.493864 6.03662 0.640342 5.89013L2.99999 3.53022L5.35964 5.89013C5.50613 6.03662 5.74364 6.03662 5.89012 5.89013C6.03661 5.74364 6.03661 5.50613 5.89012 5.35965L3.53022 2.99999Z" fill="#FA113D"/>
</svg>
